<?xml version="1.0" encoding="UTF-8"?>
<svg xmlns="http://www.w3.org/2000/svg" xmlns:xlink="http://www.w3.org/1999/xlink" viewBox="0 0 96 96" width="96px" height="96px">
<g id="surface27971606">
<path style=" stroke:none;fill-rule:nonzero;fill:rgb(227, 79, 38);;fill-opacity:1;" d="M 79.339844 8 L 16.652344 8 C 14.167969 8 12.234375 10.160156 12.511719 12.625 L 19.6875 77.21875 C 19.875 78.898438 21.058594 80.300781 22.683594 80.765625 L 46.851562 87.667969 C 47.601562 87.878906 48.390625 87.878906 49.140625 87.667969 L 73.308594 80.765625 C 74.933594 80.300781 76.117188 78.898438 76.304688 77.21875 L 83.480469 12.625 C 83.757812 10.160156 81.824219 8 79.339844 8 Z M 63.789062 32 L 36.875 32 L 37.679688 41.238281 L 61.988281 41.160156 C 61.992188 41.160156 61.996094 41.160156 62 41.160156 C 63.117188 41.160156 64.179688 41.628906 64.9375 42.449219 C 65.695312 43.273438 66.074219 44.375 65.984375 45.492188 L 64.453125 63.929688 C 64.316406 65.59375 63.160156 66.996094 61.546875 67.449219 L 49.078125 70.957031 C 48.726562 71.050781 48.359375 71.105469 47.996094 71.105469 C 47.621094 71.105469 47.242188 71.050781 46.886719 70.949219 L 34.523438 67.371094 C 32.949219 66.914062 31.8125 65.550781 31.652344 63.925781 L 31.335938 60.730469 C 31.117188 58.53125 32.722656 56.574219 34.921875 56.355469 C 37.085938 56.175781 39.078125 57.746094 39.296875 59.941406 L 39.347656 60.4375 L 48.011719 62.941406 L 56.707031 60.496094 L 57.648438 49.167969 L 34.023438 49.242188 C 34.019531 49.242188 34.015625 49.242188 34.011719 49.242188 C 31.9375 49.242188 30.207031 47.660156 30.027344 45.59375 L 28.527344 28.347656 C 28.429688 27.230469 28.804688 26.125 29.5625 25.296875 C 30.324219 24.46875 31.390625 24 32.511719 24 L 63.789062 24 C 66 24 67.789062 25.792969 67.789062 28 C 67.789062 30.207031 66 32 63.789062 32 Z M 63.789062 32 "/>
</g>
</svg>
